<svg xmlns="http://www.w3.org/2000/svg" xmlns:xlink="http://www.w3.org/1999/xlink" width="500" zoomAndPan="magnify" viewBox="0 0 375 149.999998" height="200" preserveAspectRatio="xMidYMid meet" version="1.0"><defs><g/><clipPath id="70e8c7c734"><rect x="0" width="371" y="0" height="85"/></clipPath><clipPath id="5578051e3b"><path d="M 6.148438 52.472656 L 15 52.472656 L 15 61.105469 L 6.148438 61.105469 Z M 6.148438 52.472656 " clip-rule="nonzero"/></clipPath><clipPath id="21f48f93b5"><path d="M 10.574219 52.472656 C 8.132812 52.472656 6.148438 54.40625 6.148438 56.789062 C 6.148438 59.171875 8.132812 61.105469 10.574219 61.105469 C 13.019531 61.105469 15 59.171875 15 56.789062 C 15 54.40625 13.019531 52.472656 10.574219 52.472656 Z M 10.574219 52.472656 " clip-rule="nonzero"/></clipPath><clipPath id="377e635e9a"><path d="M 0.148438 0.472656 L 9 0.472656 L 9 9.105469 L 0.148438 9.105469 Z M 0.148438 0.472656 " clip-rule="nonzero"/></clipPath><clipPath id="3d5da92176"><path d="M 4.574219 0.472656 C 2.132812 0.472656 0.148438 2.40625 0.148438 4.789062 C 0.148438 7.171875 2.132812 9.105469 4.574219 9.105469 C 7.019531 9.105469 9 7.171875 9 4.789062 C 9 2.40625 7.019531 0.472656 4.574219 0.472656 Z M 4.574219 0.472656 " clip-rule="nonzero"/></clipPath><clipPath id="9f2261c818"><rect x="0" width="9" y="0" height="10"/></clipPath><clipPath id="ed304a2cda"><path d="M 38.320312 92.351562 L 46.8125 92.351562 L 46.8125 100.617188 L 38.320312 100.617188 Z M 38.320312 92.351562 " clip-rule="nonzero"/></clipPath><clipPath id="f316f3ece8"><path d="M 42.558594 92.351562 C 40.21875 92.351562 38.320312 94.203125 38.320312 96.484375 C 38.320312 98.769531 40.21875 100.617188 42.558594 100.617188 C 44.898438 100.617188 46.796875 98.769531 46.796875 96.484375 C 46.796875 94.203125 44.898438 92.351562 42.558594 92.351562 Z M 42.558594 92.351562 " clip-rule="nonzero"/></clipPath><clipPath id="0f4924042c"><path d="M 0.320312 0.351562 L 8.800781 0.351562 L 8.800781 8.617188 L 0.320312 8.617188 Z M 0.320312 0.351562 " clip-rule="nonzero"/></clipPath><clipPath id="478dbfc1fd"><path d="M 4.558594 0.351562 C 2.21875 0.351562 0.320312 2.203125 0.320312 4.484375 C 0.320312 6.769531 2.21875 8.617188 4.558594 8.617188 C 6.898438 8.617188 8.796875 6.769531 8.796875 4.484375 C 8.796875 2.203125 6.898438 0.351562 4.558594 0.351562 Z M 4.558594 0.351562 " clip-rule="nonzero"/></clipPath><clipPath id="2a0ffe00f8"><rect x="0" width="9" y="0" height="9"/></clipPath></defs><g transform="matrix(1, 0, 0, 1, 1, 32)"><g clip-path="url(#70e8c7c734)"><g fill="#ffffff" fill-opacity="1"><g transform="translate(0.635918, 67.720491)"><g><path d="M 47.875 -23.3125 C 47.875 -19.9375 47.316406 -16.789062 46.203125 -13.875 C 45.097656 -10.96875 43.535156 -8.425781 41.515625 -6.25 C 39.492188 -4.082031 37.109375 -2.382812 34.359375 -1.15625 C 31.609375 0.0625 28.59375 0.671875 25.3125 0.671875 C 22.0625 0.671875 19.0625 0.0625 16.3125 -1.15625 C 13.5625 -2.382812 11.175781 -4.082031 9.15625 -6.25 C 7.132812 -8.425781 5.578125 -10.96875 4.484375 -13.875 C 3.398438 -16.789062 2.859375 -19.9375 2.859375 -23.3125 C 2.859375 -26.6875 3.398438 -29.828125 4.484375 -32.734375 C 5.578125 -35.640625 7.132812 -38.179688 9.15625 -40.359375 C 11.175781 -42.535156 13.5625 -44.234375 16.3125 -45.453125 C 19.0625 -46.671875 22.0625 -47.28125 25.3125 -47.28125 C 28.59375 -47.28125 31.609375 -46.671875 34.359375 -45.453125 C 37.109375 -44.234375 39.492188 -42.535156 41.515625 -40.359375 C 43.535156 -38.179688 45.097656 -35.640625 46.203125 -32.734375 C 47.316406 -29.828125 47.875 -26.6875 47.875 -23.3125 Z M 40.6875 -23.3125 C 40.6875 -26.59375 40.03125 -29.539062 38.71875 -32.15625 C 37.414062 -34.78125 35.609375 -36.847656 33.296875 -38.359375 C 30.984375 -39.867188 28.320312 -40.625 25.3125 -40.625 C 22.332031 -40.625 19.6875 -39.867188 17.375 -38.359375 C 15.070312 -36.847656 13.273438 -34.789062 11.984375 -32.1875 C 10.703125 -29.59375 10.0625 -26.632812 10.0625 -23.3125 C 10.0625 -20.019531 10.703125 -17.0625 11.984375 -14.4375 C 13.273438 -11.820312 15.070312 -9.757812 17.375 -8.25 C 19.6875 -6.75 22.332031 -6 25.3125 -6 C 28.320312 -6 30.984375 -6.75 33.296875 -8.25 C 35.609375 -9.757812 37.414062 -11.820312 38.71875 -14.4375 C 40.03125 -17.0625 40.6875 -20.019531 40.6875 -23.3125 Z M 40.6875 -23.3125 "/></g></g></g><g fill="#ffffff" fill-opacity="1"><g transform="translate(49.241899, 67.720491)"><g><path d="M 36.625 -46.75 C 37.507812 -46.75 38.25 -46.425781 38.84375 -45.78125 C 39.445312 -45.132812 39.75 -44.4375 39.75 -43.6875 C 39.75 -42.976562 39.507812 -42.289062 39.03125 -41.625 L 25.046875 -22.90625 L 21.25 -28.171875 L 33.96875 -45.15625 C 34.71875 -46.21875 35.601562 -46.75 36.625 -46.75 Z M 6.265625 -46.8125 C 7.328125 -46.8125 8.234375 -46.347656 8.984375 -45.421875 L 39.03125 -5.0625 C 39.507812 -4.488281 39.75 -3.820312 39.75 -3.0625 C 39.75 -2 39.375 -1.175781 38.625 -0.59375 C 37.875 -0.0195312 37.117188 0.265625 36.359375 0.265625 C 35.296875 0.265625 34.410156 -0.195312 33.703125 -1.125 L 3.59375 -41.421875 C 3.101562 -42.046875 2.859375 -42.710938 2.859375 -43.421875 C 2.859375 -44.398438 3.210938 -45.207031 3.921875 -45.84375 C 4.640625 -46.488281 5.421875 -46.8125 6.265625 -46.8125 Z M 5.796875 0.265625 C 4.953125 0.265625 4.238281 -0.03125 3.65625 -0.625 C 3.082031 -1.226562 2.796875 -1.90625 2.796875 -2.65625 C 2.796875 -3.414062 3.0625 -4.171875 3.59375 -4.921875 L 17.71875 -24.046875 L 21.375 -18.640625 L 8.53125 -1.265625 C 7.8125 -0.242188 6.898438 0.265625 5.796875 0.265625 Z M 5.796875 0.265625 "/></g></g></g><g fill="#ffffff" fill-opacity="1"><g transform="translate(91.789017, 67.720491)"><g><path d="M 34.5 -46.8125 C 35.34375 -46.8125 36.109375 -46.488281 36.796875 -45.84375 C 37.484375 -45.207031 37.828125 -44.398438 37.828125 -43.421875 C 37.828125 -43.066406 37.769531 -42.722656 37.65625 -42.390625 C 37.550781 -42.054688 37.382812 -41.710938 37.15625 -41.359375 L 21.90625 -19.78125 L 22.96875 -23.703125 L 22.96875 -3.390625 C 22.96875 -2.421875 22.632812 -1.613281 21.96875 -0.96875 C 21.3125 -0.320312 20.5625 0 19.71875 0 C 18.78125 0 17.988281 -0.320312 17.34375 -0.96875 C 16.695312 -1.613281 16.375 -2.421875 16.375 -3.390625 L 16.375 -23.171875 L 16.84375 -21.25 L 2.125 -40.890625 C 1.769531 -41.378906 1.523438 -41.832031 1.390625 -42.25 C 1.265625 -42.675781 1.203125 -43.085938 1.203125 -43.484375 C 1.203125 -44.460938 1.585938 -45.257812 2.359375 -45.875 C 3.140625 -46.5 3.929688 -46.8125 4.734375 -46.8125 C 5.796875 -46.8125 6.703125 -46.300781 7.453125 -45.28125 L 20.78125 -27.03125 L 19.171875 -27.234375 L 31.703125 -45.21875 C 32.453125 -46.28125 33.382812 -46.8125 34.5 -46.8125 Z M 34.5 -46.8125 "/></g></g></g><g fill="#ffffff" fill-opacity="1"><g transform="translate(130.674021, 67.720491)"><g/></g></g><g fill="#ffffff" fill-opacity="1"><g transform="translate(149.184344, 67.720491)"><g><path d="M 8.984375 -46.609375 C 9.878906 -46.609375 10.671875 -46.285156 11.359375 -45.640625 C 12.046875 -45.003906 12.390625 -44.195312 12.390625 -43.21875 L 12.390625 -3.390625 C 12.335938 -2.421875 11.96875 -1.613281 11.28125 -0.96875 C 10.59375 -0.320312 9.785156 0 8.859375 0 C 7.835938 0 7.003906 -0.320312 6.359375 -0.96875 C 5.710938 -1.613281 5.390625 -2.421875 5.390625 -3.390625 L 5.390625 -43.21875 C 5.390625 -44.195312 5.722656 -45.003906 6.390625 -45.640625 C 7.054688 -46.285156 7.921875 -46.609375 8.984375 -46.609375 Z M 39.03125 -46.609375 C 40.09375 -46.609375 40.929688 -46.285156 41.546875 -45.640625 C 42.171875 -45.003906 42.484375 -44.195312 42.484375 -43.21875 L 42.484375 -3.390625 C 42.484375 -2.421875 42.160156 -1.613281 41.515625 -0.96875 C 40.878906 -0.320312 40.023438 0 38.953125 0 C 38.023438 0 37.226562 -0.320312 36.5625 -0.96875 C 35.894531 -1.613281 35.5625 -2.421875 35.5625 -3.390625 L 35.5625 -43.21875 C 35.5625 -44.195312 35.90625 -45.003906 36.59375 -45.640625 C 37.28125 -46.285156 38.09375 -46.609375 39.03125 -46.609375 Z M 8.71875 -26.765625 L 39.09375 -26.765625 L 39.03125 -20.375 L 8.65625 -20.375 Z M 8.71875 -26.765625 "/></g></g></g><g fill="#ffffff" fill-opacity="1"><g transform="translate(197.058181, 67.720491)"><g><path d="M 47.875 -23.3125 C 47.875 -19.9375 47.316406 -16.789062 46.203125 -13.875 C 45.097656 -10.96875 43.535156 -8.425781 41.515625 -6.25 C 39.492188 -4.082031 37.109375 -2.382812 34.359375 -1.15625 C 31.609375 0.0625 28.59375 0.671875 25.3125 0.671875 C 22.0625 0.671875 19.0625 0.0625 16.3125 -1.15625 C 13.5625 -2.382812 11.175781 -4.082031 9.15625 -6.25 C 7.132812 -8.425781 5.578125 -10.96875 4.484375 -13.875 C 3.398438 -16.789062 2.859375 -19.9375 2.859375 -23.3125 C 2.859375 -26.6875 3.398438 -29.828125 4.484375 -32.734375 C 5.578125 -35.640625 7.132812 -38.179688 9.15625 -40.359375 C 11.175781 -42.535156 13.5625 -44.234375 16.3125 -45.453125 C 19.0625 -46.671875 22.0625 -47.28125 25.3125 -47.28125 C 28.59375 -47.28125 31.609375 -46.671875 34.359375 -45.453125 C 37.109375 -44.234375 39.492188 -42.535156 41.515625 -40.359375 C 43.535156 -38.179688 45.097656 -35.640625 46.203125 -32.734375 C 47.316406 -29.828125 47.875 -26.6875 47.875 -23.3125 Z M 40.6875 -23.3125 C 40.6875 -26.59375 40.03125 -29.539062 38.71875 -32.15625 C 37.414062 -34.78125 35.609375 -36.847656 33.296875 -38.359375 C 30.984375 -39.867188 28.320312 -40.625 25.3125 -40.625 C 22.332031 -40.625 19.6875 -39.867188 17.375 -38.359375 C 15.070312 -36.847656 13.273438 -34.789062 11.984375 -32.1875 C 10.703125 -29.59375 10.0625 -26.632812 10.0625 -23.3125 C 10.0625 -20.019531 10.703125 -17.0625 11.984375 -14.4375 C 13.273438 -11.820312 15.070312 -9.757812 17.375 -8.25 C 19.6875 -6.75 22.332031 -6 25.3125 -6 C 28.320312 -6 30.984375 -6.75 33.296875 -8.25 C 35.609375 -9.757812 37.414062 -11.820312 38.71875 -14.4375 C 40.03125 -17.0625 40.6875 -20.019531 40.6875 -23.3125 Z M 40.6875 -23.3125 "/></g></g></g><g fill="#ffffff" fill-opacity="1"><g transform="translate(247.728537, 67.720491)"><g><path d="M 9.390625 0 C 8.328125 0 7.394531 -0.320312 6.59375 -0.96875 C 5.789062 -1.613281 5.390625 -2.421875 5.390625 -3.390625 L 5.390625 -43.21875 C 5.390625 -44.195312 5.722656 -45.003906 6.390625 -45.640625 C 7.054688 -46.285156 7.859375 -46.609375 8.796875 -46.609375 L 27.5625 -46.609375 C 29.96875 -46.609375 32.164062 -46.019531 34.15625 -44.84375 C 36.15625 -43.675781 37.765625 -42.054688 38.984375 -39.984375 C 40.210938 -37.921875 40.828125 -35.554688 40.828125 -32.890625 C 40.828125 -31.117188 40.46875 -29.421875 39.75 -27.796875 C 39.039062 -26.179688 38.085938 -24.75 36.890625 -23.5 C 35.691406 -22.257812 34.335938 -21.328125 32.828125 -20.703125 L 32.09375 -21.96875 C 33.46875 -21.488281 34.664062 -20.789062 35.6875 -19.875 C 36.707031 -18.96875 37.519531 -17.898438 38.125 -16.671875 C 38.726562 -15.453125 39.050781 -14.066406 39.09375 -12.515625 C 39.226562 -11.140625 39.347656 -9.992188 39.453125 -9.078125 C 39.566406 -8.171875 39.734375 -7.429688 39.953125 -6.859375 C 40.179688 -6.285156 40.582031 -5.84375 41.15625 -5.53125 C 41.957031 -5.082031 42.457031 -4.414062 42.65625 -3.53125 C 42.851562 -2.644531 42.664062 -1.84375 42.09375 -1.125 C 41.6875 -0.59375 41.179688 -0.25 40.578125 -0.09375 C 39.984375 0.0625 39.375 0.0820312 38.75 -0.03125 C 38.132812 -0.144531 37.601562 -0.3125 37.15625 -0.53125 C 36.445312 -0.976562 35.722656 -1.609375 34.984375 -2.421875 C 34.253906 -3.242188 33.664062 -4.390625 33.21875 -5.859375 C 32.78125 -7.328125 32.5625 -9.257812 32.5625 -11.65625 C 32.5625 -12.757812 32.382812 -13.710938 32.03125 -14.515625 C 31.675781 -15.316406 31.1875 -15.972656 30.5625 -16.484375 C 29.945312 -16.992188 29.21875 -17.367188 28.375 -17.609375 C 27.53125 -17.859375 26.597656 -17.984375 25.578125 -17.984375 L 11.453125 -17.984375 L 12.390625 -19.3125 L 12.390625 -3.390625 C 12.390625 -2.421875 12.117188 -1.613281 11.578125 -0.96875 C 11.046875 -0.320312 10.316406 0 9.390625 0 Z M 11.515625 -23.78125 L 27.4375 -23.78125 C 28.457031 -23.820312 29.441406 -24.226562 30.390625 -25 C 31.347656 -25.78125 32.125 -26.835938 32.71875 -28.171875 C 33.320312 -29.503906 33.625 -31.015625 33.625 -32.703125 C 33.625 -34.828125 32.988281 -36.609375 31.71875 -38.046875 C 30.457031 -39.492188 28.960938 -40.21875 27.234375 -40.21875 L 11.65625 -40.21875 L 12.390625 -41.953125 L 12.390625 -22.375 Z M 11.515625 -23.78125 "/></g></g></g><g fill="#ffffff" fill-opacity="1"><g transform="translate(293.072184, 67.720491)"><g><path d="M 19.71875 0.671875 C 16.519531 0.671875 13.675781 0.226562 11.1875 -0.65625 C 8.695312 -1.550781 6.320312 -3.019531 4.0625 -5.0625 C 3.570312 -5.414062 3.203125 -5.847656 2.953125 -6.359375 C 2.710938 -6.867188 2.59375 -7.390625 2.59375 -7.921875 C 2.59375 -8.765625 2.90625 -9.519531 3.53125 -10.1875 C 4.15625 -10.851562 4.929688 -11.1875 5.859375 -11.1875 C 6.566406 -11.1875 7.234375 -10.941406 7.859375 -10.453125 C 9.546875 -8.898438 11.3125 -7.722656 13.15625 -6.921875 C 15 -6.128906 17.160156 -5.734375 19.640625 -5.734375 C 21.421875 -5.734375 23.050781 -6.019531 24.53125 -6.59375 C 26.019531 -7.164062 27.207031 -7.941406 28.09375 -8.921875 C 28.988281 -9.898438 29.4375 -11.03125 29.4375 -12.3125 C 29.4375 -13.914062 28.976562 -15.238281 28.0625 -16.28125 C 27.15625 -17.320312 25.847656 -18.1875 24.140625 -18.875 C 22.429688 -19.5625 20.378906 -20.148438 17.984375 -20.640625 C 15.765625 -21.046875 13.773438 -21.601562 12.015625 -22.3125 C 10.265625 -23.019531 8.765625 -23.914062 7.515625 -25 C 6.273438 -26.09375 5.320312 -27.394531 4.65625 -28.90625 C 3.988281 -30.414062 3.65625 -32.164062 3.65625 -34.15625 C 3.65625 -36.863281 4.363281 -39.191406 5.78125 -41.140625 C 7.207031 -43.097656 9.140625 -44.609375 11.578125 -45.671875 C 14.023438 -46.742188 16.78125 -47.28125 19.84375 -47.28125 C 22.644531 -47.28125 25.265625 -46.847656 27.703125 -45.984375 C 30.140625 -45.117188 32.113281 -43.953125 33.625 -42.484375 C 34.695312 -41.554688 35.234375 -40.554688 35.234375 -39.484375 C 35.234375 -38.691406 34.910156 -37.953125 34.265625 -37.265625 C 33.617188 -36.578125 32.875 -36.234375 32.03125 -36.234375 C 31.40625 -36.234375 30.875 -36.410156 30.4375 -36.765625 C 29.726562 -37.515625 28.769531 -38.1875 27.5625 -38.78125 C 26.363281 -39.382812 25.085938 -39.882812 23.734375 -40.28125 C 22.378906 -40.6875 21.082031 -40.890625 19.84375 -40.890625 C 17.84375 -40.890625 16.132812 -40.609375 14.71875 -40.046875 C 13.300781 -39.492188 12.210938 -38.738281 11.453125 -37.78125 C 10.703125 -36.832031 10.328125 -35.710938 10.328125 -34.421875 C 10.328125 -32.921875 10.757812 -31.679688 11.625 -30.703125 C 12.488281 -29.722656 13.695312 -28.929688 15.25 -28.328125 C 16.800781 -27.734375 18.578125 -27.191406 20.578125 -26.703125 C 23.015625 -26.171875 25.195312 -25.570312 27.125 -24.90625 C 29.0625 -24.238281 30.695312 -23.382812 32.03125 -22.34375 C 33.363281 -21.300781 34.382812 -20 35.09375 -18.4375 C 35.800781 -16.882812 36.15625 -14.957031 36.15625 -12.65625 C 36.15625 -9.988281 35.398438 -7.65625 33.890625 -5.65625 C 32.378906 -3.65625 30.390625 -2.097656 27.921875 -0.984375 C 25.460938 0.117188 22.726562 0.671875 19.71875 0.671875 Z M 19.71875 0.671875 "/></g></g></g><g fill="#ffffff" fill-opacity="1"><g transform="translate(332.023765, 67.720491)"><g><path d="M 8.796875 -46.609375 L 31.828125 -46.609375 C 32.765625 -46.609375 33.550781 -46.296875 34.1875 -45.671875 C 34.832031 -45.054688 35.15625 -44.285156 35.15625 -43.359375 C 35.15625 -42.421875 34.832031 -41.660156 34.1875 -41.078125 C 33.550781 -40.503906 32.765625 -40.21875 31.828125 -40.21875 L 11.71875 -40.21875 L 12.390625 -41.359375 L 12.390625 -26.4375 L 11.78125 -27.109375 L 28.828125 -27.109375 C 29.765625 -27.109375 30.554688 -26.796875 31.203125 -26.171875 C 31.847656 -25.546875 32.171875 -24.75 32.171875 -23.78125 C 32.171875 -22.84375 31.847656 -22.082031 31.203125 -21.5 C 30.554688 -20.925781 29.765625 -20.640625 28.828125 -20.640625 L 11.921875 -20.640625 L 12.390625 -21.25 L 12.390625 -5.859375 L 11.921875 -6.390625 L 31.828125 -6.390625 C 32.765625 -6.390625 33.550781 -6.066406 34.1875 -5.421875 C 34.832031 -4.785156 35.15625 -4.046875 35.15625 -3.203125 C 35.15625 -2.265625 34.832031 -1.492188 34.1875 -0.890625 C 33.550781 -0.296875 32.765625 0 31.828125 0 L 8.796875 0 C 7.859375 0 7.054688 -0.320312 6.390625 -0.96875 C 5.722656 -1.613281 5.390625 -2.421875 5.390625 -3.390625 L 5.390625 -43.21875 C 5.390625 -44.195312 5.722656 -45.003906 6.390625 -45.640625 C 7.054688 -46.285156 7.859375 -46.609375 8.796875 -46.609375 Z M 8.796875 -46.609375 "/></g></g></g></g></g><g clip-path="url(#5578051e3b)"><g clip-path="url(#21f48f93b5)"><g transform="matrix(1, 0, 0, 1, 6, 52)"><g clip-path="url(#9f2261c818)"><g clip-path="url(#377e635e9a)"><g clip-path="url(#3d5da92176)"><path fill="#ffffff" d="M 0.148438 0.472656 L 8.984375 0.472656 L 8.984375 9.105469 L 0.148438 9.105469 Z M 0.148438 0.472656 " fill-opacity="1" fill-rule="nonzero"/></g></g></g></g></g></g><g clip-path="url(#ed304a2cda)"><g clip-path="url(#f316f3ece8)"><g transform="matrix(1, 0, 0, 1, 38, 92)"><g clip-path="url(#2a0ffe00f8)"><g clip-path="url(#0f4924042c)"><g clip-path="url(#478dbfc1fd)"><path fill="#ffffff" d="M 0.320312 0.351562 L 8.78125 0.351562 L 8.78125 8.617188 L 0.320312 8.617188 Z M 0.320312 0.351562 " fill-opacity="1" fill-rule="nonzero"/></g></g></g></g></g></g></svg>